<svg id="Layer_1" data-name="Layer 1" xmlns="http://www.w3.org/2000/svg" viewBox="0 0 440 440"><defs><style>.cls-1{fill:#1b579c;}.cls-2{fill:#fff;}</style></defs><title>shopping-cart-of-checkered-design_new</title><circle class="cls-1" cx="220" cy="220" r="220"/><path class="cls-2" d="M106.82,124.8a9.65,9.65,0,0,0-4.89,7.61c0,2.39,1.63,5.81,3.37,7,.93.65,10.22,4.56,20.65,8.69s19.23,7.66,19.44,7.93S156.1,186.3,168.7,222.7l22.92,66.22-1.9,1.57c-2.12,1.74-1.63.6-10.16,24.23-6.08,16.95-6.68,19.39-5.16,22.33,1.36,2.61,3.37,3.47,8.37,3.75,2.44.16,4.45.43,4.45.65a2.88,2.88,0,0,1-1,1.3c-1.9,1.74-4.4,8.15-5.05,13-.54,4-.49,5.17.27,8.32a26.24,26.24,0,0,0,7.44,13.25c10.65,10.65,26.46,10.76,37.27.27a25.58,25.58,0,0,0,8-19.12,25.86,25.86,0,0,0-4.29-14.34,25.65,25.65,0,0,1-1.84-3c0-.11,13-.22,28.84-.22h28.85l-1.31,1.74A26.75,26.75,0,0,0,287,377.52a28.78,28.78,0,0,0,18.74,7.93c8.91-.05,18.47-5.6,23-13.31a27.08,27.08,0,0,0-1.68-29.5l-1.3-1.74h4.78c3.47,0,5.27-.27,6.62-1a7.21,7.21,0,0,0,.55-12.88c-1.8-1.08-2.94-1.08-74-1.25-69.86-.11-72.15-.16-71.82-1.14.16-.54,2-5.54,4-11.13l3.64-10.11h68.34c67.47,0,68.34,0,70.45-1.09a7.15,7.15,0,0,0,3.26-3.26c1.58-3.09,38.57-118.69,38.57-120.49,0-2.39-2.22-6.19-4.34-7.44-1.9-1.08-2.77-1.08-104.25-1.36l-102.35-.27-4.29-12.17c-4.51-12.93-5.11-14.18-7.28-15.59-2.39-1.57-43.84-17.71-46.12-18A7.51,7.51,0,0,0,106.82,124.8Zm123.32,73v10.05h-47.7l-1.41-4c-.76-2.11-2.34-6.68-3.53-10.05l-2.12-6.08h54.76Zm59.1-.16-.16,9.94-20.48.16-20.53.11v-20.1h41.28Zm69.65-9.78c0,.11-1.47,4.56-3.21,9.94l-3.15,9.78H307l-.17-9.94-.1-9.89h26.07C347.15,187.71,358.89,187.76,358.89,187.82ZM230.14,237.15v11.4H213.3c-9.24,0-16.84-.05-16.84-.16s-1.69-5-3.8-11-3.81-11-3.81-11.25,9.29-.43,20.65-.43h20.64Zm59.21,0v11.4H248.07V225.74h41.28Zm57-10.92c0,.27-1.57,5.32-3.47,11.24l-3.48,10.81-16.35.16-16.35.11V225.74h19.82C337.54,225.74,346.39,226,346.39,226.23ZM230.14,276v9.5l-10.43-.1-10.49-.17-3.09-9c-1.74-4.94-3.15-9.13-3.15-9.4s6.14-.38,13.58-.38h13.58Zm59.21,0v9.5H248.07v-19h41.28Zm43.95-8.86c0,.38-1.3,4.62-2.82,9.4l-2.88,8.69-10.43.17-10.43.1v-19h13.31C330.37,266.48,333.35,266.64,333.3,267.13ZM212.1,347.75a11.72,11.72,0,0,1,3.1,19.66c-2.55,2.29-4.18,2.88-7.66,2.88a10.61,10.61,0,0,1-8.31-3.36,10.51,10.51,0,0,1-3.32-8.37A11.7,11.7,0,0,1,212.1,347.75Zm100.18,1.09c2.71,1.84,5.32,6.46,5.32,9.34A11.94,11.94,0,0,1,306,370.35a11.66,11.66,0,0,1-9.84-18.58C299.57,346.83,307.33,345.36,312.28,348.84Z" transform="translate(-37 -34.59)"/></svg>